<mxfile host="app.diagrams.net" modified="2020-10-24T05:23:05.299Z" agent="5.0 (Windows NT 10.0; Win64; x64) AppleWebKit/537.36 (KHTML, like Gecko) Chrome/86.0.4240.111 Safari/537.36" etag="eWBHJLM_b-1eEoMIGLWo" version="13.8.1" type="github">
  <diagram id="lVTYWJ5q9AxQNi57Mwy6" name="Page-1">
    <mxGraphModel dx="1673" dy="895" grid="1" gridSize="10" guides="1" tooltips="1" connect="1" arrows="1" fold="1" page="1" pageScale="1" pageWidth="827" pageHeight="1169" math="0" shadow="0">
      <root>
        <mxCell id="0" />
        <mxCell id="1" parent="0" />
        <mxCell id="ZSoLlEDXcMwoq2wpnS44-14" style="edgeStyle=orthogonalEdgeStyle;rounded=0;orthogonalLoop=1;jettySize=auto;html=1;exitX=1;exitY=0.5;exitDx=0;exitDy=0;entryX=0;entryY=0.5;entryDx=0;entryDy=0;strokeWidth=2;spacing=2;fontSize=19;fontStyle=1" edge="1" parent="1" source="ZSoLlEDXcMwoq2wpnS44-1" target="ZSoLlEDXcMwoq2wpnS44-2">
          <mxGeometry relative="1" as="geometry" />
        </mxCell>
        <mxCell id="ZSoLlEDXcMwoq2wpnS44-1" value="환영인사 및&lt;br style=&quot;font-size: 19px;&quot;&gt;유의사항 안내" style="ellipse;whiteSpace=wrap;html=1;strokeWidth=2;spacing=2;fontSize=19;fontStyle=1;fillColor=#fff2cc;strokeColor=#d6b656;" vertex="1" parent="1">
          <mxGeometry x="40" y="220" width="100" height="100" as="geometry" />
        </mxCell>
        <mxCell id="ZSoLlEDXcMwoq2wpnS44-15" style="edgeStyle=orthogonalEdgeStyle;rounded=0;orthogonalLoop=1;jettySize=auto;html=1;exitX=1;exitY=0.5;exitDx=0;exitDy=0;entryX=0;entryY=0.5;entryDx=0;entryDy=0;strokeWidth=2;spacing=2;fontSize=19;fontStyle=1" edge="1" parent="1" source="ZSoLlEDXcMwoq2wpnS44-2" target="ZSoLlEDXcMwoq2wpnS44-4">
          <mxGeometry relative="1" as="geometry" />
        </mxCell>
        <mxCell id="ZSoLlEDXcMwoq2wpnS44-27" style="edgeStyle=orthogonalEdgeStyle;rounded=0;orthogonalLoop=1;jettySize=auto;html=1;exitX=0.5;exitY=1;exitDx=0;exitDy=0;entryX=0.5;entryY=0;entryDx=0;entryDy=0;strokeWidth=2;spacing=2;fontSize=19;fontStyle=1" edge="1" parent="1" source="ZSoLlEDXcMwoq2wpnS44-2" target="ZSoLlEDXcMwoq2wpnS44-3">
          <mxGeometry relative="1" as="geometry" />
        </mxCell>
        <mxCell id="ZSoLlEDXcMwoq2wpnS44-2" value="퀴즈참여 &lt;br&gt;유무&lt;br style=&quot;font-size: 19px&quot;&gt;(button)" style="rounded=0;whiteSpace=wrap;html=1;strokeWidth=2;spacing=2;fontSize=19;fontStyle=1;fillColor=#dae8fc;strokeColor=#6c8ebf;" vertex="1" parent="1">
          <mxGeometry x="200" y="220" width="110" height="100" as="geometry" />
        </mxCell>
        <mxCell id="ZSoLlEDXcMwoq2wpnS44-28" style="edgeStyle=orthogonalEdgeStyle;rounded=0;orthogonalLoop=1;jettySize=auto;html=1;exitX=1;exitY=0.5;exitDx=0;exitDy=0;entryX=0.5;entryY=1;entryDx=0;entryDy=0;strokeWidth=2;spacing=2;fontSize=19;fontStyle=1" edge="1" parent="1" source="ZSoLlEDXcMwoq2wpnS44-3" target="ZSoLlEDXcMwoq2wpnS44-13">
          <mxGeometry relative="1" as="geometry" />
        </mxCell>
        <mxCell id="ZSoLlEDXcMwoq2wpnS44-3" value="퀴즈 거절" style="rounded=0;whiteSpace=wrap;html=1;strokeWidth=2;spacing=2;fontSize=19;fontStyle=1;fillColor=#dae8fc;strokeColor=#6c8ebf;" vertex="1" parent="1">
          <mxGeometry x="200" y="360" width="110" height="100" as="geometry" />
        </mxCell>
        <mxCell id="ZSoLlEDXcMwoq2wpnS44-16" style="edgeStyle=orthogonalEdgeStyle;rounded=0;orthogonalLoop=1;jettySize=auto;html=1;exitX=1;exitY=0.5;exitDx=0;exitDy=0;entryX=0;entryY=0.5;entryDx=0;entryDy=0;strokeWidth=2;spacing=2;fontSize=19;fontStyle=1" edge="1" parent="1" source="ZSoLlEDXcMwoq2wpnS44-4" target="ZSoLlEDXcMwoq2wpnS44-5">
          <mxGeometry relative="1" as="geometry" />
        </mxCell>
        <mxCell id="ZSoLlEDXcMwoq2wpnS44-4" value="과목 안내" style="ellipse;whiteSpace=wrap;html=1;strokeWidth=2;spacing=2;fontSize=19;fontStyle=1;fillColor=#fff2cc;strokeColor=#d6b656;" vertex="1" parent="1">
          <mxGeometry x="364" y="220" width="100" height="100" as="geometry" />
        </mxCell>
        <mxCell id="ZSoLlEDXcMwoq2wpnS44-18" style="edgeStyle=orthogonalEdgeStyle;rounded=0;orthogonalLoop=1;jettySize=auto;html=1;exitX=0.5;exitY=0;exitDx=0;exitDy=0;entryX=0.5;entryY=1;entryDx=0;entryDy=0;strokeWidth=2;spacing=2;fontSize=19;fontStyle=1" edge="1" parent="1" source="ZSoLlEDXcMwoq2wpnS44-5" target="ZSoLlEDXcMwoq2wpnS44-17">
          <mxGeometry relative="1" as="geometry" />
        </mxCell>
        <mxCell id="ZSoLlEDXcMwoq2wpnS44-20" style="edgeStyle=orthogonalEdgeStyle;rounded=0;orthogonalLoop=1;jettySize=auto;html=1;exitX=1;exitY=0.5;exitDx=0;exitDy=0;entryX=0;entryY=0.5;entryDx=0;entryDy=0;strokeWidth=2;spacing=2;fontSize=19;fontStyle=1" edge="1" parent="1" source="ZSoLlEDXcMwoq2wpnS44-5" target="ZSoLlEDXcMwoq2wpnS44-6">
          <mxGeometry relative="1" as="geometry" />
        </mxCell>
        <mxCell id="ZSoLlEDXcMwoq2wpnS44-5" value="과목 선택&lt;br style=&quot;font-size: 19px;&quot;&gt;(button)" style="rounded=0;whiteSpace=wrap;html=1;strokeWidth=2;spacing=2;fontSize=19;fontStyle=1;fillColor=#dae8fc;strokeColor=#6c8ebf;" vertex="1" parent="1">
          <mxGeometry x="520" y="220" width="110" height="100" as="geometry" />
        </mxCell>
        <mxCell id="ZSoLlEDXcMwoq2wpnS44-21" style="edgeStyle=orthogonalEdgeStyle;rounded=0;orthogonalLoop=1;jettySize=auto;html=1;exitX=1;exitY=0.5;exitDx=0;exitDy=0;strokeWidth=2;spacing=2;fontSize=19;fontStyle=1" edge="1" parent="1" source="ZSoLlEDXcMwoq2wpnS44-6" target="ZSoLlEDXcMwoq2wpnS44-8">
          <mxGeometry relative="1" as="geometry" />
        </mxCell>
        <mxCell id="ZSoLlEDXcMwoq2wpnS44-6" value="문제 출제" style="ellipse;whiteSpace=wrap;html=1;strokeWidth=2;spacing=2;fontSize=19;fontStyle=1;fillColor=#fff2cc;strokeColor=#d6b656;" vertex="1" parent="1">
          <mxGeometry x="680" y="220" width="100" height="100" as="geometry" />
        </mxCell>
        <mxCell id="ZSoLlEDXcMwoq2wpnS44-22" style="edgeStyle=orthogonalEdgeStyle;rounded=0;orthogonalLoop=1;jettySize=auto;html=1;exitX=1;exitY=0.5;exitDx=0;exitDy=0;entryX=0;entryY=0.5;entryDx=0;entryDy=0;strokeWidth=2;spacing=2;fontSize=19;fontStyle=1" edge="1" parent="1" source="ZSoLlEDXcMwoq2wpnS44-8" target="ZSoLlEDXcMwoq2wpnS44-9">
          <mxGeometry relative="1" as="geometry" />
        </mxCell>
        <mxCell id="ZSoLlEDXcMwoq2wpnS44-8" value="사용자의 이름&lt;br style=&quot;font-size: 19px;&quot;&gt;입력 안내" style="ellipse;whiteSpace=wrap;html=1;strokeWidth=2;spacing=2;fontSize=19;fontStyle=1;fillColor=#fff2cc;strokeColor=#d6b656;" vertex="1" parent="1">
          <mxGeometry x="840" y="220" width="100" height="100" as="geometry" />
        </mxCell>
        <mxCell id="ZSoLlEDXcMwoq2wpnS44-23" style="edgeStyle=orthogonalEdgeStyle;rounded=0;orthogonalLoop=1;jettySize=auto;html=1;exitX=0.5;exitY=0;exitDx=0;exitDy=0;entryX=0.5;entryY=1;entryDx=0;entryDy=0;strokeWidth=2;spacing=2;fontSize=19;fontStyle=1" edge="1" parent="1" source="ZSoLlEDXcMwoq2wpnS44-9" target="ZSoLlEDXcMwoq2wpnS44-10">
          <mxGeometry relative="1" as="geometry" />
        </mxCell>
        <mxCell id="ZSoLlEDXcMwoq2wpnS44-25" style="edgeStyle=orthogonalEdgeStyle;rounded=0;orthogonalLoop=1;jettySize=auto;html=1;exitX=1;exitY=0.5;exitDx=0;exitDy=0;entryX=0;entryY=0.5;entryDx=0;entryDy=0;strokeWidth=2;spacing=2;fontSize=19;fontStyle=1" edge="1" parent="1" source="ZSoLlEDXcMwoq2wpnS44-9" target="ZSoLlEDXcMwoq2wpnS44-11">
          <mxGeometry relative="1" as="geometry" />
        </mxCell>
        <mxCell id="ZSoLlEDXcMwoq2wpnS44-9" value="이름 확인 및&lt;br style=&quot;font-size: 19px;&quot;&gt;결과 집계" style="rounded=0;whiteSpace=wrap;html=1;strokeWidth=2;spacing=2;fontSize=19;fontStyle=1;fillColor=#dae8fc;strokeColor=#6c8ebf;" vertex="1" parent="1">
          <mxGeometry x="1000" y="220" width="110" height="100" as="geometry" />
        </mxCell>
        <mxCell id="ZSoLlEDXcMwoq2wpnS44-24" style="edgeStyle=orthogonalEdgeStyle;rounded=0;orthogonalLoop=1;jettySize=auto;html=1;exitX=1;exitY=0.5;exitDx=0;exitDy=0;entryX=0.5;entryY=0;entryDx=0;entryDy=0;strokeWidth=2;spacing=2;fontSize=19;fontStyle=1" edge="1" parent="1" source="ZSoLlEDXcMwoq2wpnS44-10" target="ZSoLlEDXcMwoq2wpnS44-11">
          <mxGeometry relative="1" as="geometry" />
        </mxCell>
        <mxCell id="ZSoLlEDXcMwoq2wpnS44-10" value="이름과 점수&lt;br style=&quot;font-size: 19px;&quot;&gt;저장 (SQL)" style="rounded=0;whiteSpace=wrap;html=1;strokeWidth=2;spacing=2;fontSize=19;fontStyle=1;fillColor=#dae8fc;strokeColor=#6c8ebf;" vertex="1" parent="1">
          <mxGeometry x="1000" y="60" width="110" height="100" as="geometry" />
        </mxCell>
        <mxCell id="ZSoLlEDXcMwoq2wpnS44-26" style="edgeStyle=orthogonalEdgeStyle;rounded=0;orthogonalLoop=1;jettySize=auto;html=1;exitX=1;exitY=0.5;exitDx=0;exitDy=0;entryX=0;entryY=0.5;entryDx=0;entryDy=0;strokeWidth=2;spacing=2;fontSize=19;fontStyle=1" edge="1" parent="1" source="ZSoLlEDXcMwoq2wpnS44-11" target="ZSoLlEDXcMwoq2wpnS44-13">
          <mxGeometry relative="1" as="geometry" />
        </mxCell>
        <mxCell id="ZSoLlEDXcMwoq2wpnS44-11" value="사용자의 이름&lt;br style=&quot;font-size: 19px;&quot;&gt;입력 안내" style="ellipse;whiteSpace=wrap;html=1;strokeWidth=2;spacing=2;fontSize=19;fontStyle=1;fillColor=#fff2cc;strokeColor=#d6b656;" vertex="1" parent="1">
          <mxGeometry x="1160" y="220" width="100" height="100" as="geometry" />
        </mxCell>
        <mxCell id="ZSoLlEDXcMwoq2wpnS44-13" value="퀴즈 끝" style="rounded=0;whiteSpace=wrap;html=1;strokeWidth=2;spacing=2;fontSize=19;fontStyle=1;fillColor=#dae8fc;strokeColor=#6c8ebf;" vertex="1" parent="1">
          <mxGeometry x="1320" y="220" width="110" height="100" as="geometry" />
        </mxCell>
        <mxCell id="ZSoLlEDXcMwoq2wpnS44-19" style="edgeStyle=orthogonalEdgeStyle;rounded=0;orthogonalLoop=1;jettySize=auto;html=1;exitX=1;exitY=0.5;exitDx=0;exitDy=0;strokeWidth=2;spacing=2;fontSize=19;fontStyle=1" edge="1" parent="1" source="ZSoLlEDXcMwoq2wpnS44-17" target="ZSoLlEDXcMwoq2wpnS44-6">
          <mxGeometry relative="1" as="geometry" />
        </mxCell>
        <mxCell id="ZSoLlEDXcMwoq2wpnS44-17" value="선택한 과목의 문제&lt;br style=&quot;font-size: 19px;&quot;&gt;(csv, xlsx) 로딩" style="rounded=0;whiteSpace=wrap;html=1;strokeWidth=2;spacing=2;fontSize=19;fontStyle=1;fillColor=#dae8fc;strokeColor=#6c8ebf;" vertex="1" parent="1">
          <mxGeometry x="520" y="60" width="110" height="100" as="geometry" />
        </mxCell>
      </root>
    </mxGraphModel>
  </diagram>
</mxfile>
